<svg width="121" height="28" viewBox="0 0 121 28" fill="none" xmlns="http://www.w3.org/2000/svg">
<path d="M100.854 25.5176C100.176 25.3483 99.5924 24.9844 99.1016 24.4258L97.9082 23.1562C97.3496 22.3776 97.0703 21.472 97.0703 20.4395L97.3496 20.3379L97.8066 21.5312L98.1875 22.166C98.7969 23.1309 99.5924 23.8587 100.574 24.3496C101.674 22.9616 102.529 21.4635 103.139 19.8555C103.765 18.2474 104.171 16.5632 104.357 14.8027L102.707 14.625C101.895 14.6758 101.116 14.8535 100.371 15.1582C99.6432 15.4629 98.9154 15.7676 98.1875 16.0723C97.7474 15.9538 97.5273 15.7083 97.5273 15.3359C98.0182 14.6081 98.4753 13.8717 98.8984 13.127C99.3385 12.3652 99.6855 11.5612 99.9395 10.7148L99.457 10.5371L98.9238 10.6133L98.4668 10.2578V9.90234L100.295 9.34375L100.574 9.44531L102.961 8.60742C103.706 7.33789 104.29 5.97526 104.713 4.51953C104.476 4.35026 104.171 4.29102 103.799 4.3418C102.462 4.68034 101.107 4.86654 99.7363 4.90039L99 4.62109L98.8223 3.88477L99.2793 3.70703L101.412 3.88477L105.449 3.25L105.83 3.5293L106.008 3.88477C105.957 4.86654 105.729 5.76367 105.322 6.57617C104.916 7.38867 104.501 8.19271 104.078 8.98828L104.357 9.44531L104.18 9.90234C103.435 9.90234 102.724 10.0208 102.047 10.2578L101.488 10.0801C101.184 10.8587 100.845 11.612 100.473 12.3398C100.117 13.0677 99.7194 13.7956 99.2793 14.5234H99.6602C100.947 13.8633 102.419 13.5924 104.078 13.7109L105.449 13.9902L105.729 14.8027C105.373 16.5632 104.865 18.2474 104.205 19.8555C103.562 21.4635 102.749 23.0208 101.768 24.5273L101.488 24.6289C101.37 24.9844 101.158 25.2806 100.854 25.5176ZM100.752 24.9844V24.7051H100.473V24.9844H100.752ZM99.6602 24.1719V23.8926L99.2031 23.791L99.1016 24.0703L99.6602 24.1719ZM119.389 23.8926C118.525 23.097 117.941 22.2168 117.637 21.252C117.078 21.2689 116.52 21.2096 115.961 21.0742C114.861 21.4297 113.727 21.7344 112.559 21.9883L112.279 21.8867C111.23 22.1406 110.18 22.4115 109.131 22.6992C108.098 23.0039 107.057 23.3086 106.008 23.6133L105.83 22.9023L106.465 21.9883C107.464 19.263 108.496 16.5716 109.562 13.9141C110.646 11.2396 111.247 8.41276 111.365 5.43359L110.172 4.79883L109.969 4.3418L110.629 3.98633C111.188 4.10482 111.712 4.35026 112.203 4.72266C112.44 5.07812 112.525 5.52669 112.457 6.06836C112.152 8.86133 111.458 11.5612 110.375 14.168C109.309 16.7747 108.318 19.3815 107.404 21.9883L107.76 22.0645C109.232 21.709 110.705 21.3704 112.178 21.0488C113.667 20.7103 115.148 20.4141 116.621 20.1602L116.697 19.8047C115.851 18.8906 115.182 17.9173 114.691 16.8848L114.869 16.5293H115.148C115.927 17.291 116.663 18.112 117.357 18.9922C118.035 20.0755 118.737 21.1673 119.465 22.2676L120.023 23.0801L119.744 23.791L119.389 23.8926ZM97.8066 22.0645L97.9082 21.8105H97.6289L97.8066 22.0645ZM104.078 9.26758V8.98828H103.799V9.26758H104.078Z" fill="#1D1D1D"/>
<path d="M90.0527 26.9902C88.7493 26.4486 87.5137 25.8138 86.3457 25.0859C85.2454 24.2904 84.2383 23.4017 83.3242 22.4199C82.6471 22.8431 81.9193 23.1732 81.1406 23.4102C80.3789 23.6641 79.6257 23.9434 78.8809 24.248L78.6016 24.0703C79.3464 23.6979 80.0404 23.3086 80.6836 22.9023C81.3268 22.513 81.987 22.1068 82.6641 21.6836L82.7656 21.3281C82.3932 20.651 82.0378 19.9486 81.6992 19.2207C81.3607 18.4928 81.0729 17.7565 80.8359 17.0117L79.541 16.9355C78.4238 17.1217 77.3151 17.3926 76.2148 17.748L76.0371 18.9414H76.3164L76.7734 18.7637L76.8496 19.1191L75.8594 20.0332L75.4785 22.3184C75.597 23.3678 75.7832 24.3496 76.0371 25.2637L75.4785 25.7969H75.0977L74.8438 25.3398C73.7943 24.7305 72.6517 24.4004 71.416 24.3496V24.0703L72.4316 23.791L74.5645 24.1719C74.2428 23.0885 74.209 22.0137 74.4629 20.9473L74.1836 20.8711C73.2695 21.4128 72.4401 22.0814 71.6953 22.877L70.8574 23.1562L68.5723 22.5977L68.4707 22.3184L69.0293 21.7852H69.8672L70.6797 21.8613C71.9154 21.252 73.1426 20.5833 74.3613 19.8555C74.5475 19.3646 74.7083 18.8483 74.8438 18.3066C74.5898 18.1204 74.3105 18.0612 74.0059 18.1289C73.0749 18.3659 72.1523 18.696 71.2383 19.1191L69.8672 18.2051L69.7656 17.5703L70.4004 17.3926L71.5176 17.8496C72.4993 17.291 73.6081 16.9863 74.8438 16.9355L75.0215 15.6406L74.9199 15.1074C73.8197 15.2767 72.8379 15.5306 71.9746 15.8691C71.1113 16.2077 70.2227 16.4954 69.3086 16.7324C70.3411 16.0723 71.3822 15.4714 72.4316 14.9297C73.4811 14.3711 74.5306 13.7533 75.5801 13.0762L75.6562 12.7207L75.5801 12.2637L76.6719 11.8828L77.2305 12.2637L77.4082 12.8984C77.1035 13.3893 76.6719 13.7871 76.1133 14.0918H75.7578V14.3711C76.181 14.9805 76.3672 15.6491 76.3164 16.377L76.8496 16.4785C78.0176 16.1061 79.2533 15.8607 80.5566 15.7422L80.6328 14.4473L80.4551 14.0918L80.5566 13.6348L80.1758 12.7207L79.6172 12.6191L79.3633 12.7207L78.8809 12.0859C79.2533 11.7135 79.778 11.5612 80.4551 11.6289L81.0137 11.8828C81.623 12.9831 81.9616 14.1764 82.0293 15.4629L82.3086 15.5645L83.0449 15.4629L83.3242 15.5645L86.3457 15.0059L86.8281 15.2852L86.9043 15.7422L86.7266 16.2754C85.2201 16.3431 83.7135 16.4701 82.207 16.6562V17.291C82.6979 18.3913 83.2227 19.4915 83.7812 20.5918L84.0605 20.6934L84.3398 20.3125C85.0169 19.8893 85.5671 19.3392 85.9902 18.6621L86.0918 17.8496L86.8281 17.6719L87.2852 18.0273V18.7637L85.7109 20.6934L84.5176 21.6074C85.127 22.5215 85.8294 23.2324 86.625 23.7402C87.4375 24.265 88.2077 24.7982 88.9355 25.3398L89.6719 25.543L89.7734 25.1621C89.7734 24.248 89.6211 23.4271 89.3164 22.6992L90.0527 23.0547C90.6621 23.9688 90.9668 24.9759 90.9668 26.0762L90.5098 26.9141L90.0527 26.9902ZM69.3848 22.1406V21.8613H69.1055V22.1406H69.3848ZM88.9355 15.3613C87.7676 14.6335 86.5404 13.9987 85.2539 13.457L85.1523 12.8984L85.4316 12.543H86.0918C87.1921 13.2031 88.3262 13.7533 89.4941 14.1934L89.5957 14.7266L89.3926 15.2852L88.9355 15.3613ZM85.8125 12.8984V12.6191H85.5332V12.8984H85.8125ZM72.9902 11.9844C72.2454 11.9167 71.6022 11.6712 71.0605 11.248L70.8574 10.7148L71.1367 10.334C72.931 10.8418 74.7507 10.7826 76.5957 10.1562L76.8496 10.2324L78.3477 9.97852L78.5254 8.96289L78.4238 8.60742L78.5254 8.32812L78.0684 8.15039C77.2051 8.50586 76.2487 8.68359 75.1992 8.68359L74.7422 8.22656V7.87109C75.9102 7.4987 77.1374 7.2194 78.4238 7.0332L78.5254 6.29688L78.4238 5.58594H77.4082C76.4264 6.0599 75.3262 6.29688 74.1074 6.29688L72.7109 5.58594L72.5332 5.02734L73.0918 4.67188C73.7689 5.02734 74.5306 5.17969 75.377 5.12891L76.8496 4.84961C75.9355 3.74935 75.2669 2.61523 74.8438 1.44727C75.0807 1.27799 75.3516 1.21875 75.6562 1.26953C76.0286 1.38802 76.2148 1.63346 76.2148 2.00586C76.8919 2.80143 77.4167 3.6224 77.7891 4.46875L78.6016 4.57031L79.7188 4.29102C79.7188 3.91862 79.8711 3.61393 80.1758 3.37695L80.7344 3.09766L81.8516 1.72656V1.26953L81.1152 0.8125L80.9121 0.355469L81.1914 0H81.6484L82.9434 0.8125L83.1211 1.44727L82.3086 2.91992C81.6315 3.5293 80.8275 3.89323 79.8965 4.01172V4.29102H80.4551L84.0605 3.93555L84.5938 4.29102V4.57031L84.3398 5.12891L83.4004 5.30664L82.3086 5.12891C81.3776 5.12891 80.4805 5.21354 79.6172 5.38281V5.66211L79.8965 6.75391L81.3691 6.85547L82.3086 6.67773L82.6641 6.95703V7.3125L82.5879 7.76953C81.9616 8.02344 81.2845 8.11654 80.5566 8.04883L80.2773 7.94727L79.8203 8.15039L79.7188 9.59766C80.5143 9.90234 81.3776 10.0293 82.3086 9.97852C83.6628 9.92773 85.0085 9.77539 86.3457 9.52148L86.9043 9.87695V10.1562C86.6673 10.2747 86.5742 10.5202 86.625 10.8926C85.5247 10.8926 84.4837 11.0111 83.502 11.248L82.3848 11.0703C81.6569 11.2565 80.8952 11.3158 80.0996 11.248L79.8203 11.1719C78.6523 11.2904 77.4928 11.4004 76.3418 11.502C75.2077 11.5866 74.0905 11.7474 72.9902 11.9844Z" fill="#1D1D1D"/>
<path d="M50.5371 25.7969L49.877 25.3145L49.5977 22.9785C48.6836 22.6061 47.6849 22.3945 46.6016 22.3438C45.5182 22.276 44.418 22.2422 43.3008 22.2422C42.4375 22.3607 41.5742 22.4707 40.7109 22.5723C39.8477 22.6569 39.0182 22.7923 38.2227 22.9785C37.5456 22.8939 36.8685 22.9277 36.1914 23.0801C35.3281 23.1986 34.4902 23.3848 33.6777 23.6387C32.8822 23.8926 32.0866 24.1719 31.291 24.4766L31.0879 24.1973L30.8086 24.0957L30.6309 23.5371C31.3079 22.7923 31.6296 21.929 31.5957 20.9473C31.5788 19.9486 31.5703 18.9499 31.5703 17.9512C31.5026 16.7155 31.0964 15.5983 30.3516 14.5996L29.6152 13.9395V13.6602C29.8014 13.3555 30.0807 13.2031 30.4531 13.2031L32.0273 14.4219C32.3997 15.2344 32.6283 16.0892 32.7129 16.9863C32.8145 17.8835 32.8314 18.7975 32.7637 19.7285L32.5859 22.2422C32.8229 22.4284 33.1276 22.4876 33.5 22.4199C34.4818 22.1829 35.472 21.9375 36.4707 21.6836L36.9277 21.7852L40.3555 21.3027C40.3724 18.5098 40.4655 15.7168 40.6348 12.9238C40.7025 11.3496 40.6686 9.76693 40.5332 8.17578L40.6348 7.89648L40.5332 7.16016L40.7109 3.98633C40.22 3.66471 40.0085 3.22461 40.0762 2.66602L40.8125 2.38672C41.1849 2.82682 41.5827 3.10612 42.0059 3.22461L42.209 4.54492C42.0228 5.71289 41.8958 6.95703 41.8281 8.27734L41.9297 8.55664L41.8281 8.83594L41.9297 9.11523C41.7435 11.3496 41.6504 13.584 41.6504 15.8184C41.6165 17.5788 41.7096 19.3138 41.9297 21.0234L42.5645 21.125L43.2246 20.9473L43.7832 21.0234L44.7988 20.9473C45.6621 20.9473 46.5085 21.0234 47.3379 21.1758C48.1673 21.3281 49.0137 21.4635 49.877 21.582C50.1309 20.4141 50.3171 19.2122 50.4355 17.9766C50.554 16.724 50.681 15.4714 50.8164 14.2188L50.4355 13.3047C50.0124 13.1693 49.8262 12.89 49.877 12.4668L50.4355 12.3652L50.5371 12.0859H50.8164L51.1719 12.543L51.832 12.8223C52.069 13.7533 52.1621 14.7858 52.1113 15.9199C51.9251 16.9694 51.7474 18.0273 51.5781 19.0938C51.4258 20.1432 51.3242 21.1927 51.2734 22.2422C51.5781 22.4961 51.6712 22.8092 51.5527 23.1816C51.2988 23.4186 51.2057 23.7572 51.2734 24.1973L51.3496 25.1367L50.8164 25.7969H50.5371Z" fill="#1D1D1D"/>
<path d="M18.5098 27.4473C17.3926 27.0749 16.3092 26.6178 15.2598 26.0762L14.9043 25.2383L15.2598 25.1367C15.9368 25.763 16.7747 26.0423 17.7734 25.9746C17.5872 24.502 17.5195 23.0293 17.5703 21.5566C16.7747 21.3704 15.9284 21.2604 15.0312 21.2266C14.1341 21.1927 13.2285 21.1758 12.3145 21.1758C11.1973 21.4297 10.1478 21.8275 9.16602 22.3691L8.88672 26.1523L8.98828 26.6094L8.78516 26.9902L7.94727 27.168C7.52409 26.7956 7.37174 26.3385 7.49023 25.7969C7.71029 23.901 7.80339 21.9967 7.76953 20.084C7.70182 19.0853 7.62565 18.112 7.54102 17.1641C7.45638 16.2161 7.22786 15.3105 6.85547 14.4473L7.41406 13.8887L8.50586 15.0059H8.78516C10.3932 14.7012 12.0267 14.3965 13.6855 14.0918C15.3613 13.7702 17.0033 13.4316 18.6113 13.0762C18.9668 13.5671 19.0853 14.151 18.9668 14.8281L18.6875 17.3164L18.7891 17.5957C18.7383 18.3913 18.7044 19.1868 18.6875 19.9824L18.7891 20.6172L18.6875 23.6641L18.9668 24.3242L18.8652 25.2383L19.2461 26.8125L18.5098 27.4473ZM12.873 20.084C14.041 20.0671 15.209 20.0671 16.377 20.084L16.6562 20.1602L17.1133 19.9824L17.3926 20.084L17.5703 19.4238L17.3926 17.8496H17.1133L16.1992 18.0527C15.8945 17.7988 15.5221 17.6719 15.082 17.6719C14.1003 17.9258 13.11 18.1289 12.1113 18.2812C11.1296 18.4336 10.207 18.7214 9.34375 19.1445L9.06445 19.0684L8.98828 19.3477L9.16602 20.8203H9.72461C10.7064 20.4479 11.7559 20.2025 12.873 20.084ZM9.16602 17.9512C10.2155 17.5788 11.3073 17.2995 12.4414 17.1133C13.5924 16.9271 14.7181 16.7747 15.8184 16.6562L16.0977 16.7578C16.6562 16.6901 17.1217 16.5378 17.4941 16.3008V14.7266L17.291 14.3457H16.834C15.5475 14.7858 14.2103 15.1159 12.8223 15.3359C11.4342 15.5391 10.1224 15.8861 8.88672 16.377L8.78516 17.0371L9.16602 17.9512ZM2.31055 14.4473C1.56576 14.1426 0.829427 13.8379 0.101562 13.5332L0 12.9746C0.304688 12.6699 0.702474 12.543 1.19336 12.5938C1.70117 12.9661 2.31901 13.0931 3.04688 12.9746C4.46875 12.6022 5.89062 12.2637 7.3125 11.959C8.73438 11.6543 10.1816 11.375 11.6543 11.1211L11.9336 9.82617C11.9336 9.16602 11.8151 8.61589 11.5781 8.17578C10.3424 8.66667 9.10677 9.13216 7.87109 9.57227L7.5918 9.19141L6.57617 8.73438L6.29688 7.99805C6.53385 7.74414 6.8724 7.65104 7.3125 7.71875L8.22656 8.09961C9.46224 7.65951 10.7572 7.28711 12.1113 6.98242V6.42383L11.9336 5.6875L11.4766 5.58594C10.1224 5.90755 8.76823 6.24609 7.41406 6.60156C6.85547 6.24609 6.26302 5.94141 5.63672 5.6875L5.45898 4.95117L5.73828 4.5957H6.37305C6.88086 5.08659 7.4987 5.26432 8.22656 5.12891C9.52995 4.77344 10.8249 4.4349 12.1113 4.11328L12.2129 2.28516L12.1113 2.00586L10.4609 1.3457L10.2832 0.8125L10.5371 0.431641H11.1973L13.4062 1.3457C13.5924 2.02279 13.6602 2.76758 13.6094 3.58008L13.5078 3.83398L13.9648 3.93555C14.7773 3.74935 15.5814 3.56315 16.377 3.37695C17.1725 3.19076 18.002 3.09766 18.8652 3.09766L19.3477 3.47852L19.4238 4.11328L18.7891 4.67188C16.9779 4.31641 15.1836 4.5026 13.4062 5.23047L13.3301 6.42383L13.8887 6.70312C14.5658 6.46615 15.3021 6.34766 16.0977 6.34766L16.6562 6.70312V7.33789L16.377 7.89648L15.3613 8.17578C15.0566 7.7526 14.625 7.60026 14.0664 7.71875L13.4062 7.99805C13.237 8.91211 13.1777 9.86003 13.2285 10.8418H13.8887C15.1243 10.791 16.2923 10.6302 17.3926 10.3594C18.5098 10.0716 19.7116 9.96159 20.998 10.0293L21.4551 10.1055C22.0137 9.86849 22.6315 9.77539 23.3086 9.82617L23.791 10.1055L23.8672 10.7656L23.5117 10.5879L23.3086 11.2227H23.0293L22.2168 11.0449C21.709 11.2311 21.1842 11.3242 20.6426 11.3242L20.3633 11.2227L19.9062 11.3242L19.4238 11.2227C16.5293 11.6458 13.6432 12.0775 10.7656 12.5176C7.90495 12.9408 5.08659 13.584 2.31055 14.4473ZM19.1445 4.03711L19.2461 3.65625H18.9668V4.03711H19.1445Z" fill="#1D1D1D"/>
</svg>
