<svg width="1440" height="806" viewBox="0 0 1440 806" fill="none" xmlns="http://www.w3.org/2000/svg">
<mask id="mask0_1_19209" style="mask-type:alpha" maskUnits="userSpaceOnUse" x="0" y="0" width="1440" height="6436">
<rect width="1440" height="6436" fill="#D9D9D9"/>
</mask>
<g mask="url(#mask0_1_19209)">
<g opacity="0.03">
<path d="M-0.00012207 16H1440" stroke="white"/>
<path d="M-0.00012207 46H1440" stroke="white"/>
<path d="M-0.00012207 76H1440" stroke="white"/>
<path d="M-0.00012207 106H1440" stroke="white"/>
<path d="M-0.00012207 136H1440" stroke="white"/>
<path d="M-0.00012207 166H1440" stroke="white"/>
<path d="M-0.00012207 196H1440" stroke="white"/>
<path d="M-0.00012207 226H1440" stroke="white"/>
<path d="M-0.00012207 256H1440" stroke="white"/>
<path d="M-0.00012207 286H1440" stroke="white"/>
<path d="M-0.00012207 316H1440" stroke="white"/>
<path d="M-0.00012207 346H1440" stroke="white"/>
<path d="M-0.00012207 376H1440" stroke="white"/>
<path d="M-0.00012207 406H1440" stroke="white"/>
<path d="M-0.00012207 436H1440" stroke="white"/>
<path d="M-0.00012207 466H1440" stroke="white"/>
<path d="M-0.00012207 496H1440" stroke="white"/>
<path d="M-0.00012207 526H1440" stroke="white"/>
<path d="M-0.00012207 556H1440" stroke="white"/>
<path d="M-0.00012207 586H1440" stroke="white"/>
<path d="M-0.00012207 616H1440" stroke="white"/>
<path d="M-0.00012207 646H1440" stroke="white"/>
<path d="M-0.00012207 676H1440" stroke="white"/>
<path d="M-0.00012207 706H1440" stroke="white"/>
<path d="M-0.00012207 736H1440" stroke="white"/>
<path d="M-0.00012207 766H1440" stroke="white"/>
<path d="M-0.00012207 796H1440" stroke="white"/>
<path d="M1440 -14L1440 7261" stroke="white"/>
<path d="M1410 -14L1410 7261" stroke="white"/>
<path d="M1380 -14L1380 7261" stroke="white"/>
<path d="M1350 -14L1350 7261" stroke="white"/>
<path d="M1320 -14L1320 7261" stroke="white"/>
<path d="M1290 -14L1290 7261" stroke="white"/>
<path d="M1260 -14L1260 7261" stroke="white"/>
<path d="M1230 -14L1230 7261" stroke="white"/>
<path d="M1200 -14L1200 7261" stroke="white"/>
<path d="M1170 -14L1170 7261" stroke="white"/>
<path d="M1140 -14L1140 7261" stroke="white"/>
<path d="M1110 -14L1110 7261" stroke="white"/>
<path d="M1080 -14L1080 7261" stroke="white"/>
<path d="M1050 -14L1050 7261" stroke="white"/>
<path d="M1020 -14L1020 7261" stroke="white"/>
<path d="M990 -14L990 7261" stroke="white"/>
<path d="M960 -14L960 7261" stroke="white"/>
<path d="M930 -14L930 7261" stroke="white"/>
<path d="M900 -14L900 7261" stroke="white"/>
<path d="M870 -14L870 7261" stroke="white"/>
<path d="M840 -14L840 7261" stroke="white"/>
<path d="M810 -14L810 7261" stroke="white"/>
<path d="M780 -14L780 7261" stroke="white"/>
<path d="M750 -14L750 7261" stroke="white"/>
<path d="M720 -14L720 7261" stroke="white"/>
<path d="M690 -14L690 7261" stroke="white"/>
<path d="M660 -14L660 7261" stroke="white"/>
<path d="M630 -14L630 7261" stroke="white"/>
<path d="M600 -14L600 7261" stroke="white"/>
<path d="M570 -14L570 7261" stroke="white"/>
<path d="M540 -14L540 7261" stroke="white"/>
<path d="M510 -14L510 7261" stroke="white"/>
<path d="M480 -14L480 7261" stroke="white"/>
<path d="M450 -14L450 7261" stroke="white"/>
<path d="M420 -14L420 7261" stroke="white"/>
<path d="M390 -14L390 7261" stroke="white"/>
<path d="M360 -14L360 7261" stroke="white"/>
<path d="M330 -14L330 7261" stroke="white"/>
<path d="M300 -14L300 7261" stroke="white"/>
<path d="M270 -14L270 7261" stroke="white"/>
<path d="M240 -14L240 7261" stroke="white"/>
<path d="M210 -14L210 7261" stroke="white"/>
<path d="M180 -14L180 7261" stroke="white"/>
<path d="M150 -14L150 7261" stroke="white"/>
<path d="M120 -14L120 7261" stroke="white"/>
<path d="M90 -14L89.9997 7261" stroke="white"/>
<path d="M60 -14L59.9997 7261" stroke="white"/>
<path d="M30 -14L29.9997 7261" stroke="white"/>
<path d="M0 -14L-0.000318 7261" stroke="white"/>
</g>
</g>
</svg>
