<svg width="1440" height="6436" viewBox="0 0 1440 6436" fill="none" xmlns="http://www.w3.org/2000/svg">
<mask id="mask0_1_10728" style="mask-type:alpha" maskUnits="userSpaceOnUse" x="0" y="0" width="1440" height="6436">
<rect width="1440" height="6436" fill="#D9D9D9"/>
</mask>
<g mask="url(#mask0_1_10728)">
<g opacity="0.03">
<path d="M-0.00012207 0H1440" stroke="#1D1D1D"/>
<path d="M-0.00012207 30H1440" stroke="#1D1D1D"/>
<path d="M-0.00012207 60H1440" stroke="#1D1D1D"/>
<path d="M-0.00012207 90H1440" stroke="#1D1D1D"/>
<path d="M-0.00012207 120H1440" stroke="#1D1D1D"/>
<path d="M-0.00012207 150H1440" stroke="#1D1D1D"/>
<path d="M-0.00012207 180H1440" stroke="#1D1D1D"/>
<path d="M-0.00012207 210H1440" stroke="#1D1D1D"/>
<path d="M-0.00012207 240H1440" stroke="#1D1D1D"/>
<path d="M-0.00012207 270H1440" stroke="#1D1D1D"/>
<path d="M-0.00012207 300H1440" stroke="#1D1D1D"/>
<path d="M-0.00012207 330H1440" stroke="#1D1D1D"/>
<path d="M-0.00012207 360H1440" stroke="#1D1D1D"/>
<path d="M-0.00012207 390H1440" stroke="#1D1D1D"/>
<path d="M-0.00012207 420H1440" stroke="#1D1D1D"/>
<path d="M-0.00012207 450H1440" stroke="#1D1D1D"/>
<path d="M-0.00012207 480H1440" stroke="#1D1D1D"/>
<path d="M-0.00012207 510H1440" stroke="#1D1D1D"/>
<path d="M-0.00012207 540H1440" stroke="#1D1D1D"/>
<path d="M-0.00012207 570H1440" stroke="#1D1D1D"/>
<path d="M-0.00012207 600H1440" stroke="#1D1D1D"/>
<path d="M-0.00012207 630H1440" stroke="#1D1D1D"/>
<path d="M-0.00012207 660H1440" stroke="#1D1D1D"/>
<path d="M-0.00012207 690H1440" stroke="#1D1D1D"/>
<path d="M-0.00012207 720H1440" stroke="#1D1D1D"/>
<path d="M-0.00012207 750H1440" stroke="#1D1D1D"/>
<path d="M-0.00012207 780H1440" stroke="#1D1D1D"/>
<path d="M-0.00012207 810H1440" stroke="#1D1D1D"/>
<path d="M-0.00012207 840H1440" stroke="#1D1D1D"/>
<path d="M-0.00012207 870H1440" stroke="#1D1D1D"/>
<path d="M-0.00012207 900H1440" stroke="#1D1D1D"/>
<path d="M-0.00012207 930H1440" stroke="#1D1D1D"/>
<path d="M-0.00012207 960H1440" stroke="#1D1D1D"/>
<path d="M-0.00012207 990H1440" stroke="#1D1D1D"/>
<path d="M-0.00012207 1020H1440" stroke="#1D1D1D"/>
<path d="M-0.00012207 1050H1440" stroke="#1D1D1D"/>
<path d="M-0.00012207 1080H1440" stroke="#1D1D1D"/>
<path d="M-0.00012207 1110H1440" stroke="#1D1D1D"/>
<path d="M-0.00012207 1140H1440" stroke="#1D1D1D"/>
<path d="M-0.00012207 1170H1440" stroke="#1D1D1D"/>
<path d="M-0.00012207 1200H1440" stroke="#1D1D1D"/>
<path d="M-0.00012207 1230H1440" stroke="#1D1D1D"/>
<path d="M-0.00012207 1260H1440" stroke="#1D1D1D"/>
<path d="M-0.00012207 1290H1440" stroke="#1D1D1D"/>
<path d="M-0.00012207 1320H1440" stroke="#1D1D1D"/>
<path d="M-0.00012207 1350H1440" stroke="#1D1D1D"/>
<path d="M-0.00012207 1380H1440" stroke="#1D1D1D"/>
<path d="M-0.00012207 1410H1440" stroke="#1D1D1D"/>
<path d="M-0.00012207 1440H1440" stroke="#1D1D1D"/>
<path d="M-0.00012207 1470H1440" stroke="#1D1D1D"/>
<path d="M-0.00012207 1500H1440" stroke="#1D1D1D"/>
<path d="M-0.00012207 1530H1440" stroke="#1D1D1D"/>
<path d="M-0.00012207 1560H1440" stroke="#1D1D1D"/>
<path d="M-0.00012207 1590H1440" stroke="#1D1D1D"/>
<path d="M-0.00012207 1620H1440" stroke="#1D1D1D"/>
<path d="M-0.00012207 1650H1440" stroke="#1D1D1D"/>
<path d="M-0.00012207 1680H1440" stroke="#1D1D1D"/>
<path d="M-0.00012207 1710H1440" stroke="#1D1D1D"/>
<path d="M-0.00012207 1740H1440" stroke="#1D1D1D"/>
<path d="M-0.00012207 1770H1440" stroke="#1D1D1D"/>
<path d="M-0.00012207 1800H1440" stroke="#1D1D1D"/>
<path d="M-0.00012207 1830H1440" stroke="#1D1D1D"/>
<path d="M-0.00012207 1860H1440" stroke="#1D1D1D"/>
<path d="M-0.00012207 1890H1440" stroke="#1D1D1D"/>
<path d="M-0.00012207 1920H1440" stroke="#1D1D1D"/>
<path d="M-0.00012207 1950H1440" stroke="#1D1D1D"/>
<path d="M-0.00012207 1980H1440" stroke="#1D1D1D"/>
<path d="M-0.00012207 2010H1440" stroke="#1D1D1D"/>
<path d="M-0.00012207 2040H1440" stroke="#1D1D1D"/>
<path d="M-0.00012207 2070H1440" stroke="#1D1D1D"/>
<path d="M-0.00012207 2100H1440" stroke="#1D1D1D"/>
<path d="M-0.00012207 2130H1440" stroke="#1D1D1D"/>
<path d="M-0.00012207 2160H1440" stroke="#1D1D1D"/>
<path d="M-0.00012207 2190H1440" stroke="#1D1D1D"/>
<path d="M-0.00012207 2220H1440" stroke="#1D1D1D"/>
<path d="M-0.00012207 2250H1440" stroke="#1D1D1D"/>
<path d="M-0.00012207 2280H1440" stroke="#1D1D1D"/>
<path d="M-0.00012207 2310H1440" stroke="#1D1D1D"/>
<path d="M-0.00012207 2340H1440" stroke="#1D1D1D"/>
<path d="M-0.00012207 2370H1440" stroke="#1D1D1D"/>
<path d="M-0.00012207 2400H1440" stroke="#1D1D1D"/>
<path d="M-0.00012207 2430H1440" stroke="#1D1D1D"/>
<path d="M-0.00012207 2460H1440" stroke="#1D1D1D"/>
<path d="M-0.00012207 2490H1440" stroke="#1D1D1D"/>
<path d="M-0.00012207 2520H1440" stroke="#1D1D1D"/>
<path d="M-0.00012207 2550H1440" stroke="#1D1D1D"/>
<path d="M-0.00012207 2580H1440" stroke="#1D1D1D"/>
<path d="M-0.00012207 2610H1440" stroke="#1D1D1D"/>
<path d="M-0.00012207 2640H1440" stroke="#1D1D1D"/>
<path d="M-0.00012207 2670H1440" stroke="#1D1D1D"/>
<path d="M-0.00012207 2700H1440" stroke="#1D1D1D"/>
<path d="M-0.00012207 2730H1440" stroke="#1D1D1D"/>
<path d="M-0.00012207 2760H1440" stroke="#1D1D1D"/>
<path d="M-0.00012207 2790H1440" stroke="#1D1D1D"/>
<path d="M-0.00012207 2820H1440" stroke="#1D1D1D"/>
<path d="M-0.00012207 2850H1440" stroke="#1D1D1D"/>
<path d="M-0.00012207 2880H1440" stroke="#1D1D1D"/>
<path d="M-0.00012207 2910H1440" stroke="#1D1D1D"/>
<path d="M-0.00012207 2940H1440" stroke="#1D1D1D"/>
<path d="M-0.00012207 2970H1440" stroke="#1D1D1D"/>
<path d="M-0.00012207 3000H1440" stroke="#1D1D1D"/>
<path d="M-0.00012207 3030H1440" stroke="#1D1D1D"/>
<path d="M-0.00012207 3060H1440" stroke="#1D1D1D"/>
<path d="M-0.00012207 3090H1440" stroke="#1D1D1D"/>
<path d="M-0.00012207 3120H1440" stroke="#1D1D1D"/>
<path d="M-0.00012207 3150H1440" stroke="#1D1D1D"/>
<path d="M-0.00012207 3180H1440" stroke="#1D1D1D"/>
<path d="M-0.00012207 3210H1440" stroke="#1D1D1D"/>
<path d="M-0.00012207 3240H1440" stroke="#1D1D1D"/>
<path d="M-0.00012207 3270H1440" stroke="#1D1D1D"/>
<path d="M-0.00012207 3300H1440" stroke="#1D1D1D"/>
<path d="M-0.00012207 3330H1440" stroke="#1D1D1D"/>
<path d="M-0.00012207 3360H1440" stroke="#1D1D1D"/>
<path d="M-0.00012207 3390H1440" stroke="#1D1D1D"/>
<path d="M-0.00012207 3420H1440" stroke="#1D1D1D"/>
<path d="M-0.00012207 3450H1440" stroke="#1D1D1D"/>
<path d="M-0.00012207 3480H1440" stroke="#1D1D1D"/>
<path d="M-0.00012207 3510H1440" stroke="#1D1D1D"/>
<path d="M-0.00012207 3540H1440" stroke="#1D1D1D"/>
<path d="M-0.00012207 3570H1440" stroke="#1D1D1D"/>
<path d="M-0.00012207 3600H1440" stroke="#1D1D1D"/>
<path d="M-0.00012207 3630H1440" stroke="#1D1D1D"/>
<path d="M-0.00012207 3660H1440" stroke="#1D1D1D"/>
<path d="M-0.00012207 3690H1440" stroke="#1D1D1D"/>
<path d="M-0.00012207 3720H1440" stroke="#1D1D1D"/>
<path d="M-0.00012207 3750H1440" stroke="#1D1D1D"/>
<path d="M-0.00012207 3780H1440" stroke="#1D1D1D"/>
<path d="M-0.00012207 3810H1440" stroke="#1D1D1D"/>
<path d="M-0.00012207 3840H1440" stroke="#1D1D1D"/>
<path d="M-0.00012207 3870H1440" stroke="#1D1D1D"/>
<path d="M-0.00012207 3900H1440" stroke="#1D1D1D"/>
<path d="M-0.00012207 3930H1440" stroke="#1D1D1D"/>
<path d="M-0.00012207 3960H1440" stroke="#1D1D1D"/>
<path d="M-0.00012207 3990H1440" stroke="#1D1D1D"/>
<path d="M-0.00012207 4020H1440" stroke="#1D1D1D"/>
<path d="M-0.00012207 4050H1440" stroke="#1D1D1D"/>
<path d="M-0.00012207 4080H1440" stroke="#1D1D1D"/>
<path d="M-0.00012207 4110H1440" stroke="#1D1D1D"/>
<path d="M-0.00012207 4140H1440" stroke="#1D1D1D"/>
<path d="M-0.00012207 4170H1440" stroke="#1D1D1D"/>
<path d="M-0.00012207 4200H1440" stroke="#1D1D1D"/>
<path d="M-0.00012207 4230H1440" stroke="#1D1D1D"/>
<path d="M-0.00012207 4260H1440" stroke="#1D1D1D"/>
<path d="M-0.00012207 4290H1440" stroke="#1D1D1D"/>
<path d="M-0.00012207 4320H1440" stroke="#1D1D1D"/>
<path d="M-0.00012207 4350H1440" stroke="#1D1D1D"/>
<path d="M-0.00012207 4380H1440" stroke="#1D1D1D"/>
<path d="M-0.00012207 4410H1440" stroke="#1D1D1D"/>
<path d="M-0.00012207 4440H1440" stroke="#1D1D1D"/>
<path d="M-0.00012207 4470H1440" stroke="#1D1D1D"/>
<path d="M-0.00012207 4500H1440" stroke="#1D1D1D"/>
<path d="M-0.00012207 4530H1440" stroke="#1D1D1D"/>
<path d="M-0.00012207 4560H1440" stroke="#1D1D1D"/>
<path d="M-0.00012207 4590H1440" stroke="#1D1D1D"/>
<path d="M-0.00012207 4620H1440" stroke="#1D1D1D"/>
<path d="M-0.00012207 4650H1440" stroke="#1D1D1D"/>
<path d="M-0.00012207 4680H1440" stroke="#1D1D1D"/>
<path d="M-0.00012207 4710H1440" stroke="#1D1D1D"/>
<path d="M-0.00012207 4740H1440" stroke="#1D1D1D"/>
<path d="M-0.00012207 4770H1440" stroke="#1D1D1D"/>
<path d="M-0.00012207 4800H1440" stroke="#1D1D1D"/>
<path d="M-0.00012207 4830H1440" stroke="#1D1D1D"/>
<path d="M-0.00012207 4860H1440" stroke="#1D1D1D"/>
<path d="M-0.00012207 4890H1440" stroke="#1D1D1D"/>
<path d="M-0.00012207 4920H1440" stroke="#1D1D1D"/>
<path d="M-0.00012207 4950H1440" stroke="#1D1D1D"/>
<path d="M-0.00012207 4980H1440" stroke="#1D1D1D"/>
<path d="M-0.00012207 5010H1440" stroke="#1D1D1D"/>
<path d="M-0.00012207 5040H1440" stroke="#1D1D1D"/>
<path d="M-0.00012207 5070H1440" stroke="#1D1D1D"/>
<path d="M-0.00012207 5100H1440" stroke="#1D1D1D"/>
<path d="M-0.00012207 5130H1440" stroke="#1D1D1D"/>
<path d="M-0.00012207 5160H1440" stroke="#1D1D1D"/>
<path d="M-0.00012207 5190H1440" stroke="#1D1D1D"/>
<path d="M-0.00012207 5220H1440" stroke="#1D1D1D"/>
<path d="M-0.00012207 5250H1440" stroke="#1D1D1D"/>
<path d="M-0.00012207 5280H1440" stroke="#1D1D1D"/>
<path d="M-0.00012207 5310H1440" stroke="#1D1D1D"/>
<path d="M-0.00012207 5340H1440" stroke="#1D1D1D"/>
<path d="M-0.00012207 5370H1440" stroke="#1D1D1D"/>
<path d="M-0.00012207 5400H1440" stroke="#1D1D1D"/>
<path d="M-0.00012207 5430H1440" stroke="#1D1D1D"/>
<path d="M-0.00012207 5460H1440" stroke="#1D1D1D"/>
<path d="M-0.00012207 5490H1440" stroke="#1D1D1D"/>
<path d="M-0.00012207 5520H1440" stroke="#1D1D1D"/>
<path d="M-0.00012207 5550H1440" stroke="#1D1D1D"/>
<path d="M-0.00012207 5580H1440" stroke="#1D1D1D"/>
<path d="M-0.00012207 5610H1440" stroke="#1D1D1D"/>
<path d="M-0.00012207 5640H1440" stroke="#1D1D1D"/>
<path d="M-0.00012207 5670H1440" stroke="#1D1D1D"/>
<path d="M-0.00012207 5700H1440" stroke="#1D1D1D"/>
<path d="M-0.00012207 5730H1440" stroke="#1D1D1D"/>
<path d="M-0.00012207 5760H1440" stroke="#1D1D1D"/>
<path d="M-0.00012207 5790H1440" stroke="#1D1D1D"/>
<path d="M-0.00012207 5820H1440" stroke="#1D1D1D"/>
<path d="M-0.00012207 5850H1440" stroke="#1D1D1D"/>
<path d="M-0.00012207 5880H1440" stroke="#1D1D1D"/>
<path d="M-0.00012207 5910H1440" stroke="#1D1D1D"/>
<path d="M-0.00012207 5940H1440" stroke="#1D1D1D"/>
<path d="M-0.00012207 5970H1440" stroke="#1D1D1D"/>
<path d="M-0.00012207 6000H1440" stroke="#1D1D1D"/>
<path d="M-0.00012207 6030H1440" stroke="#1D1D1D"/>
<path d="M-0.00012207 6060H1440" stroke="#1D1D1D"/>
<path d="M-0.00012207 6090H1440" stroke="#1D1D1D"/>
<path d="M-0.00012207 6120H1440" stroke="#1D1D1D"/>
<path d="M-0.00012207 6150H1440" stroke="#1D1D1D"/>
<path d="M-0.00012207 6180H1440" stroke="#1D1D1D"/>
<path d="M-0.00012207 6210H1440" stroke="#1D1D1D"/>
<path d="M-0.00012207 6240H1440" stroke="#1D1D1D"/>
<path d="M-0.00012207 6270H1440" stroke="#1D1D1D"/>
<path d="M-0.00012207 6300H1440" stroke="#1D1D1D"/>
<path d="M-0.00012207 6330H1440" stroke="#1D1D1D"/>
<path d="M-0.00012207 6360H1440" stroke="#1D1D1D"/>
<path d="M-0.00012207 6390H1440" stroke="#1D1D1D"/>
<path d="M-0.00012207 6420H1440" stroke="#1D1D1D"/>
<path d="M1440 68L1440 7343" stroke="#1D1D1D"/>
<path d="M1410 68L1410 7343" stroke="#1D1D1D"/>
<path d="M1380 68L1380 7343" stroke="#1D1D1D"/>
<path d="M1350 68L1350 7343" stroke="#1D1D1D"/>
<path d="M1320 68L1320 7343" stroke="#1D1D1D"/>
<path d="M1290 68L1290 7343" stroke="#1D1D1D"/>
<path d="M1260 68L1260 7343" stroke="#1D1D1D"/>
<path d="M1230 68L1230 7343" stroke="#1D1D1D"/>
<path d="M1200 68L1200 7343" stroke="#1D1D1D"/>
<path d="M1170 68L1170 7343" stroke="#1D1D1D"/>
<path d="M1140 68L1140 7343" stroke="#1D1D1D"/>
<path d="M1110 68L1110 7343" stroke="#1D1D1D"/>
<path d="M1080 68L1080 7343" stroke="#1D1D1D"/>
<path d="M1050 68L1050 7343" stroke="#1D1D1D"/>
<path d="M1020 68L1020 7343" stroke="#1D1D1D"/>
<path d="M990 68L990 7343" stroke="#1D1D1D"/>
<path d="M960 68L960 7343" stroke="#1D1D1D"/>
<path d="M930 68L930 7343" stroke="#1D1D1D"/>
<path d="M900 68L900 7343" stroke="#1D1D1D"/>
<path d="M870 68L870 7343" stroke="#1D1D1D"/>
<path d="M840 68L840 7343" stroke="#1D1D1D"/>
<path d="M810 68L810 7343" stroke="#1D1D1D"/>
<path d="M780 68L780 7343" stroke="#1D1D1D"/>
<path d="M750 68L750 7343" stroke="#1D1D1D"/>
<path d="M720 68L720 7343" stroke="#1D1D1D"/>
<path d="M690 68L690 7343" stroke="#1D1D1D"/>
<path d="M660 68L660 7343" stroke="#1D1D1D"/>
<path d="M630 68L630 7343" stroke="#1D1D1D"/>
<path d="M600 68L600 7343" stroke="#1D1D1D"/>
<path d="M570 68L570 7343" stroke="#1D1D1D"/>
<path d="M540 68L540 7343" stroke="#1D1D1D"/>
<path d="M510 68L510 7343" stroke="#1D1D1D"/>
<path d="M480 68L480 7343" stroke="#1D1D1D"/>
<path d="M450 68L450 7343" stroke="#1D1D1D"/>
<path d="M420 68L420 7343" stroke="#1D1D1D"/>
<path d="M390 68L390 7343" stroke="#1D1D1D"/>
<path d="M360 68L360 7343" stroke="#1D1D1D"/>
<path d="M330 68L330 7343" stroke="#1D1D1D"/>
<path d="M300 68L300 7343" stroke="#1D1D1D"/>
<path d="M270 68L270 7343" stroke="#1D1D1D"/>
<path d="M240 68L240 7343" stroke="#1D1D1D"/>
<path d="M210 68L210 7343" stroke="#1D1D1D"/>
<path d="M180 68L180 7343" stroke="#1D1D1D"/>
<path d="M150 68L150 7343" stroke="#1D1D1D"/>
<path d="M120 68L120 7343" stroke="#1D1D1D"/>
<path d="M90 68L89.9997 7343" stroke="#1D1D1D"/>
<path d="M60 68L59.9997 7343" stroke="#1D1D1D"/>
<path d="M30 68L29.9997 7343" stroke="#1D1D1D"/>
<path d="M0 68L-0.000318 7343" stroke="#1D1D1D"/>
</g>
</g>
</svg>
