<svg width="315" height="555" viewBox="0 0 315 555" fill="none" xmlns="http://www.w3.org/2000/svg">
<mask id="mask0_4_26432" style="mask-type:alpha" maskUnits="userSpaceOnUse" x="0" y="0" width="315" height="555">
<rect width="315" height="555" rx="10" fill="#EFEFEF"/>
</mask>
<g mask="url(#mask0_4_26432)">
<mask id="mask1_4_26432" style="mask-type:alpha" maskUnits="userSpaceOnUse" x="-30" y="-5437" width="375" height="6167">
<rect x="-30" y="-5437" width="375" height="6167" fill="#D9D9D9"/>
</mask>
<g mask="url(#mask1_4_26432)">
<g opacity="0.03">
<path d="M-570 0H870" stroke="#1D1D1D"/>
<path d="M-570 15H870" stroke="#1D1D1D"/>
<path d="M-570 30H870" stroke="#1D1D1D"/>
<path d="M-570 45H870" stroke="#1D1D1D"/>
<path d="M-570 60H870" stroke="#1D1D1D"/>
<path d="M-570 75H870" stroke="#1D1D1D"/>
<path d="M-570 90H870" stroke="#1D1D1D"/>
<path d="M-570 105H870" stroke="#1D1D1D"/>
<path d="M-570 120H870" stroke="#1D1D1D"/>
<path d="M-570 135H870" stroke="#1D1D1D"/>
<path d="M-570 150H870" stroke="#1D1D1D"/>
<path d="M-570 165H870" stroke="#1D1D1D"/>
<path d="M-570 180H870" stroke="#1D1D1D"/>
<path d="M-570 195H870" stroke="#1D1D1D"/>
<path d="M-570 210H870" stroke="#1D1D1D"/>
<path d="M-570 225H870" stroke="#1D1D1D"/>
<path d="M-570 240H870" stroke="#1D1D1D"/>
<path d="M-570 255H870" stroke="#1D1D1D"/>
<path d="M-570 270H870" stroke="#1D1D1D"/>
<path d="M-570 285H870" stroke="#1D1D1D"/>
<path d="M-570 300H870" stroke="#1D1D1D"/>
<path d="M-570 315H870" stroke="#1D1D1D"/>
<path d="M-570 330H870" stroke="#1D1D1D"/>
<path d="M-570 345H870" stroke="#1D1D1D"/>
<path d="M-570 360H870" stroke="#1D1D1D"/>
<path d="M-570 375H870" stroke="#1D1D1D"/>
<path d="M-570 390H870" stroke="#1D1D1D"/>
<path d="M-570 405H870" stroke="#1D1D1D"/>
<path d="M-570 420H870" stroke="#1D1D1D"/>
<path d="M-570 435H870" stroke="#1D1D1D"/>
<path d="M-570 450H870" stroke="#1D1D1D"/>
<path d="M-570 465H870" stroke="#1D1D1D"/>
<path d="M-570 480H870" stroke="#1D1D1D"/>
<path d="M-570 495H870" stroke="#1D1D1D"/>
<path d="M-570 510H870" stroke="#1D1D1D"/>
<path d="M-570 525H870" stroke="#1D1D1D"/>
<path d="M-570 540H870" stroke="#1D1D1D"/>
<path d="M-570 555H870" stroke="#1D1D1D"/>
<path d="M315 -5460L315 1815" stroke="#1D1D1D"/>
<path d="M300 -5460L300 1815" stroke="#1D1D1D"/>
<path d="M285 -5460L285 1815" stroke="#1D1D1D"/>
<path d="M270 -5460L270 1815" stroke="#1D1D1D"/>
<path d="M255 -5460L255 1815" stroke="#1D1D1D"/>
<path d="M240 -5460L240 1815" stroke="#1D1D1D"/>
<path d="M225 -5460L225 1815" stroke="#1D1D1D"/>
<path d="M210 -5460L210 1815" stroke="#1D1D1D"/>
<path d="M195 -5460L195 1815" stroke="#1D1D1D"/>
<path d="M180 -5460L180 1815" stroke="#1D1D1D"/>
<path d="M165 -5460L165 1815" stroke="#1D1D1D"/>
<path d="M150 -5460L150 1815" stroke="#1D1D1D"/>
<path d="M135 -5460L135 1815" stroke="#1D1D1D"/>
<path d="M120 -5460L120 1815" stroke="#1D1D1D"/>
<path d="M105 -5460L105 1815" stroke="#1D1D1D"/>
<path d="M90.0001 -5460L89.9998 1815" stroke="#1D1D1D"/>
<path d="M75.0001 -5460L74.9998 1815" stroke="#1D1D1D"/>
<path d="M60.0001 -5460L59.9998 1815" stroke="#1D1D1D"/>
<path d="M45.0001 -5460L44.9998 1815" stroke="#1D1D1D"/>
<path d="M30.0001 -5460L29.9998 1815" stroke="#1D1D1D"/>
<path d="M15.0001 -5460L14.9998 1815" stroke="#1D1D1D"/>
<path d="M0.00012207 -5460L-0.00019593 1815" stroke="#1D1D1D"/>
</g>
</g>
</g>
</svg>
