<svg width="166" height="22" viewBox="0 0 166 22" fill="none" xmlns="http://www.w3.org/2000/svg">
<path d="M153.024 21.0241C152.816 20.9281 152.776 20.7921 152.904 20.6161C153.976 19.0961 154.72 17.3121 155.136 15.2641C155.552 13.2001 155.76 10.7441 155.76 7.89611C155.76 5.16011 155.752 3.15211 155.736 1.87211C155.736 1.68011 155.832 1.58411 156.024 1.58411C159.544 1.48811 162.32 1.08811 164.352 0.384108L164.472 0.360107C164.584 0.360107 164.664 0.432107 164.712 0.576107L165.12 1.70411L165.144 1.82411C165.144 1.95211 165.08 2.04011 164.952 2.08811C163.176 2.66411 160.68 3.02411 157.464 3.16811C157.464 5.26411 157.472 6.73611 157.488 7.58411H165.696C165.776 7.58411 165.84 7.61611 165.888 7.68011C165.952 7.72811 165.984 7.79211 165.984 7.87211V8.97611C165.984 9.16811 165.888 9.26411 165.696 9.26411H162.96V21.6961C162.96 21.8881 162.864 21.9841 162.672 21.9841H161.544C161.352 21.9841 161.256 21.8881 161.256 21.6961V9.26411H157.464C157.432 11.7441 157.2 13.9921 156.768 16.0081C156.336 18.0081 155.64 19.8001 154.68 21.3841C154.584 21.5281 154.456 21.5681 154.296 21.5041L153.024 21.0241ZM144.312 1.41611C144.312 1.22411 144.408 1.12811 144.6 1.12811H154.08C154.272 1.12811 154.368 1.22411 154.368 1.41611V2.49611C154.368 2.68811 154.272 2.78411 154.08 2.78411H144.6C144.408 2.78411 144.312 2.68811 144.312 2.49611V1.41611ZM144.168 21.3361C144.008 21.2721 143.96 21.1441 144.024 20.9521C144.776 19.1121 145.184 16.4401 145.248 12.9361V10.5601V5.83211C145.248 5.64011 145.344 5.54411 145.536 5.54411H153.312C153.504 5.54411 153.6 5.64011 153.6 5.83211V12.8881C153.6 13.0801 153.504 13.1761 153.312 13.1761H146.88C146.816 16.8401 146.416 19.6561 145.68 21.6241C145.616 21.8161 145.488 21.8721 145.296 21.7921L144.168 21.3361ZM152.016 7.20011H146.856V11.4721H152.016V7.20011Z" fill="white"/>
<path d="M130.176 10.848C130.144 10.784 130.128 10.736 130.128 10.704C130.128 10.576 130.2 10.504 130.344 10.488C132.2 10.008 133.72 9.33601 134.904 8.47201C133.784 7.43201 132.936 6.33601 132.36 5.18401C131.752 5.92001 131.096 6.55201 130.392 7.08001C130.328 7.12801 130.264 7.15201 130.2 7.15201C130.136 7.15201 130.064 7.11201 129.984 7.03201L129.312 6.19201C129.264 6.11201 129.24 6.04801 129.24 6.00001C129.24 5.93601 129.28 5.86401 129.36 5.78401C130.288 5.06401 131.096 4.23201 131.784 3.28801C132.472 2.32801 132.992 1.33601 133.344 0.312008C133.392 0.136007 133.504 0.0640073 133.68 0.0960079L134.808 0.216008C134.904 0.232008 134.968 0.272007 135 0.336007C135.048 0.400007 135.056 0.480007 135.024 0.576007C134.896 0.960007 134.688 1.44801 134.4 2.04001H141.408C141.6 2.04001 141.696 2.13601 141.696 2.32801V3.19201C141.696 3.38401 141.6 3.48001 141.408 3.48001H139.992C139.512 5.44801 138.632 7.09601 137.352 8.42401C138.616 9.22401 140.088 9.83201 141.768 10.248C141.864 10.28 141.928 10.328 141.96 10.392C141.992 10.456 141.984 10.528 141.936 10.608L141.408 11.712C141.344 11.872 141.216 11.928 141.024 11.88C139.248 11.352 137.624 10.56 136.152 9.50401C134.76 10.592 133.04 11.416 130.992 11.976L130.872 12C130.776 12 130.688 11.936 130.608 11.808L130.176 10.848ZM120 17.592C119.936 17.496 119.904 17.432 119.904 17.4C119.904 17.352 119.936 17.28 120 17.184C120.816 16.256 121.552 15.152 122.208 13.872C122.864 12.592 123.408 11.264 123.84 9.88801H120.36C120.168 9.88801 120.072 9.79201 120.072 9.60001V8.61601C120.072 8.42401 120.168 8.32801 120.36 8.32801H125.496C124.872 7.70401 124.216 7.10401 123.528 6.52801C122.856 5.95201 122.248 5.49601 121.704 5.16001C121.608 5.11201 121.56 5.04801 121.56 4.96801C121.56 4.88801 121.6 4.82401 121.68 4.77601L122.376 4.15201C122.44 4.08801 122.512 4.05601 122.592 4.05601C122.624 4.05601 122.688 4.07201 122.784 4.10401C123.472 4.56801 124.224 5.16001 125.04 5.88001C125.616 5.36801 126.144 4.80801 126.624 4.20001C127.104 3.59201 127.48 3.00801 127.752 2.44801H120.96C120.768 2.44801 120.672 2.35201 120.672 2.16001V1.17601C120.672 0.984008 120.768 0.888007 120.96 0.888007H129.288C129.48 0.888007 129.576 0.984008 129.576 1.17601V2.16001C129.576 2.27201 129.552 2.39201 129.504 2.52001C129.136 3.30401 128.656 4.08001 128.064 4.84801C127.488 5.60001 126.856 6.29601 126.168 6.93601C126.552 7.27201 127.016 7.73601 127.56 8.32801H129.744C129.936 8.32801 130.032 8.42401 130.032 8.61601V9.81601C129.904 10.76 129.704 11.696 129.432 12.624C129.16 13.536 128.84 14.352 128.472 15.072C128.408 15.232 128.28 15.272 128.088 15.192L127.2 14.808C127.024 14.744 126.976 14.616 127.056 14.424C127.424 13.768 127.736 13.04 127.992 12.24C128.248 11.44 128.424 10.656 128.52 9.88801H126.504V18.912C126.504 19.744 126.392 20.376 126.168 20.808C125.944 21.24 125.568 21.536 125.04 21.696C124.528 21.872 123.784 21.968 122.808 21.984C122.632 21.984 122.52 21.904 122.472 21.744L122.04 20.616C122.024 20.584 122.016 20.544 122.016 20.496C122.016 20.432 122.04 20.376 122.088 20.328C122.136 20.296 122.208 20.288 122.304 20.304C123.056 20.336 123.624 20.296 124.008 20.184C124.392 20.088 124.648 19.92 124.776 19.68C124.904 19.424 124.968 19.064 124.968 18.6V17.568C124.968 16.24 124.984 14.504 125.016 12.36L125.04 10.416C124.608 11.952 124.064 13.424 123.408 14.832C122.752 16.224 122.016 17.448 121.2 18.504C121.152 18.568 121.088 18.6 121.008 18.6C120.928 18.6 120.856 18.568 120.792 18.504L120 17.592ZM133.344 3.86401C133.984 5.27201 134.896 6.48001 136.08 7.48801C137.168 6.40001 137.912 5.06401 138.312 3.48001H133.608L133.344 3.86401ZM135.528 20.568C135.512 20.536 135.504 20.496 135.504 20.448C135.504 20.384 135.528 20.328 135.576 20.28C135.624 20.248 135.696 20.24 135.792 20.256C136.912 20.288 137.712 20.176 138.192 19.92C138.688 19.664 138.992 19.152 139.104 18.384C139.168 17.984 139.216 17.464 139.248 16.824C139.28 16.168 139.288 15.568 139.272 15.024H135.888C135.52 16.656 134.864 18.048 133.92 19.2C132.976 20.336 131.672 21.24 130.008 21.912C129.976 21.928 129.928 21.936 129.864 21.936C129.784 21.936 129.704 21.896 129.624 21.816L128.856 20.832C128.808 20.768 128.784 20.704 128.784 20.64C128.784 20.544 128.848 20.472 128.976 20.424C131.84 19.448 133.584 17.648 134.208 15.024H130.512C130.32 15.024 130.224 14.928 130.224 14.736V13.776C130.224 13.584 130.32 13.488 130.512 13.488H134.472C134.52 13.04 134.56 12.352 134.592 11.424C134.592 11.232 134.688 11.136 134.88 11.136L136.008 11.16C136.2 11.16 136.296 11.256 136.296 11.448C136.264 12.152 136.216 12.832 136.152 13.488H140.688C140.88 13.488 140.976 13.584 140.976 13.776C140.976 15.488 140.928 16.912 140.832 18.048C140.736 19.104 140.528 19.896 140.208 20.424C139.904 20.968 139.44 21.336 138.816 21.528C138.208 21.72 137.352 21.808 136.248 21.792C136.104 21.792 135.992 21.72 135.912 21.576L135.528 20.568Z" fill="white"/>
<path d="M107.856 4.63202H115.368C115.56 4.63202 115.656 4.72802 115.656 4.92002V8.90402C115.656 9.09602 115.56 9.19202 115.368 9.19202H107.856V10.752H115.536C115.728 10.752 115.824 10.848 115.824 11.04V13.824H117.528C117.72 13.824 117.816 13.92 117.816 14.112V14.952C117.816 15.144 117.72 15.24 117.528 15.24H115.824V18.024C115.824 18.216 115.728 18.312 115.536 18.312H107.856V18.792C107.856 19.656 107.768 20.296 107.592 20.712C107.416 21.144 107.04 21.456 106.464 21.648C105.904 21.84 105.032 21.936 103.848 21.936L102.984 21.912C102.824 21.912 102.704 21.84 102.624 21.696L102.288 20.808C102.272 20.776 102.264 20.736 102.264 20.688C102.264 20.624 102.288 20.568 102.336 20.52C102.384 20.488 102.456 20.48 102.552 20.496C102.776 20.512 103.08 20.52 103.464 20.52C104.28 20.52 104.88 20.464 105.264 20.352C105.664 20.24 105.92 20.064 106.032 19.824C106.16 19.584 106.224 19.232 106.224 18.768V18.312H97.9679C97.7759 18.312 97.6799 18.216 97.6799 18.024V17.16C97.6799 16.968 97.7759 16.872 97.9679 16.872H106.224V15.216H96.3839C96.1919 15.216 96.0959 15.12 96.0959 14.928V14.136C96.0959 13.944 96.1919 13.848 96.3839 13.848H106.224V12.168H98.0159C97.8239 12.168 97.7279 12.072 97.7279 11.88V11.04C97.7279 10.848 97.8239 10.752 98.0159 10.752H106.224V9.19202H98.6639C98.4719 9.19202 98.3759 9.09602 98.3759 8.90402V4.92002C98.3759 4.72802 98.4719 4.63202 98.6639 4.63202H106.224V3.14402H96.7199C96.5279 3.14402 96.4319 3.04802 96.4319 2.85602V2.08802C96.4319 1.89602 96.5279 1.80002 96.7199 1.80002H106.224V0.360021C106.224 0.168021 106.32 0.0720215 106.512 0.0720215H107.568C107.76 0.0720215 107.856 0.168021 107.856 0.360021V1.80002H117.264C117.456 1.80002 117.552 1.89602 117.552 2.08802V2.85602C117.552 3.04802 117.456 3.14402 117.264 3.14402H107.856V4.63202ZM106.224 7.84802V5.97602H99.8159V7.84802H106.224ZM114.216 5.97602H107.856V7.84802H114.216V5.97602ZM114.312 12.168H107.856V13.872H114.312V12.168ZM114.312 15.216H107.856V16.872H114.312V15.216Z" fill="white"/>
<path d="M87.36 21.9841C87.168 21.9841 87.072 21.8881 87.072 21.6961V9.6961H82.416C82.224 9.6961 82.128 9.6001 82.128 9.4081V8.3281C82.128 8.1361 82.224 8.0401 82.416 8.0401H87.072V0.336096C87.072 0.144095 87.168 0.0480957 87.36 0.0480957H88.44C88.632 0.0480957 88.728 0.144095 88.728 0.336096V8.0401H93.6C93.792 8.0401 93.888 8.1361 93.888 8.3281V9.4081C93.888 9.6001 93.792 9.6961 93.6 9.6961H88.728V21.6961C88.728 21.8881 88.632 21.9841 88.44 21.9841H87.36ZM73.344 2.4241C73.152 2.4241 73.056 2.3281 73.056 2.1361V1.1281C73.056 0.936095 73.152 0.840096 73.344 0.840096H80.808C81 0.840096 81.096 0.936095 81.096 1.1281V2.1361C81.096 2.3281 81 2.4241 80.808 2.4241H73.344ZM72.24 5.9281C72.048 5.9281 71.952 5.8321 71.952 5.6401V4.5601C71.952 4.3681 72.048 4.2721 72.24 4.2721H81.768C81.96 4.2721 82.056 4.3681 82.056 4.5601V5.6401C82.056 5.8321 81.96 5.9281 81.768 5.9281H72.24ZM73.344 9.3841C73.152 9.3841 73.056 9.2881 73.056 9.0961V8.1601C73.056 7.9681 73.152 7.8721 73.344 7.8721H80.76C80.952 7.8721 81.048 7.9681 81.048 8.1601V9.0961C81.048 9.2881 80.952 9.3841 80.76 9.3841H73.344ZM73.344 12.7681C73.152 12.7681 73.056 12.6721 73.056 12.4801V11.5201C73.056 11.3281 73.152 11.2321 73.344 11.2321H80.76C80.952 11.2321 81.048 11.3281 81.048 11.5201V12.4801C81.048 12.6721 80.952 12.7681 80.76 12.7681H73.344ZM73.08 21.4081C72.888 21.4081 72.792 21.3121 72.792 21.1201V15.0001C72.792 14.8081 72.888 14.7121 73.08 14.7121H81.024C81.216 14.7121 81.312 14.8081 81.312 15.0001V21.1201C81.312 21.3121 81.216 21.4081 81.024 21.4081H73.08ZM79.68 19.8721V16.2001H74.4V19.8721H79.68Z" fill="white"/>
<path d="M48.168 7.39195C48.136 7.32795 48.12 7.27195 48.12 7.22395C48.12 7.12795 48.184 7.05595 48.312 7.00795C50.264 6.30395 52.08 5.33595 53.76 4.10395C55.44 2.87195 56.832 1.59195 57.936 0.263946C58.032 0.151947 58.152 0.0959473 58.296 0.0959473H59.544C59.688 0.0959473 59.808 0.143947 59.904 0.239947C61.152 1.59995 62.632 2.87195 64.344 4.05595C66.056 5.23995 67.808 6.15195 69.6 6.79195C69.792 6.83995 69.84 6.96795 69.744 7.17595L69.024 8.37595C68.928 8.51995 68.8 8.55995 68.64 8.49595C66.768 7.74395 65.008 6.75995 63.36 5.54395C61.712 4.32795 60.24 3.04795 58.944 1.70395C57.728 3.11195 56.304 4.44795 54.672 5.71195C53.04 6.95995 51.232 7.95995 49.248 8.71195C49.216 8.72795 49.168 8.73595 49.104 8.73595C48.992 8.73595 48.904 8.67995 48.84 8.56795L48.168 7.39195ZM53.064 9.23995C52.872 9.23995 52.776 9.14395 52.776 8.95195V7.91995C52.776 7.72795 52.872 7.63195 53.064 7.63195H65.16C65.352 7.63195 65.448 7.72795 65.448 7.91995V8.95195C65.448 9.14395 65.352 9.23995 65.16 9.23995H53.064ZM57.48 13.8959C56.264 16.1359 55.056 17.9599 53.856 19.3679C58.192 19.1279 61.952 18.8079 65.136 18.4079C64.464 17.4959 63.672 16.5679 62.76 15.6239C62.68 15.5439 62.64 15.4799 62.64 15.4319C62.64 15.3519 62.696 15.2879 62.808 15.2399L63.744 14.8079C63.808 14.7759 63.856 14.7599 63.888 14.7599C63.968 14.7599 64.048 14.7999 64.128 14.8799C65.936 16.5599 67.552 18.5999 68.976 20.9999C69.024 21.0799 69.048 21.1359 69.048 21.1679C69.048 21.2639 68.984 21.3359 68.856 21.3839L67.656 21.8639C67.624 21.8799 67.576 21.8879 67.512 21.8879C67.4 21.8879 67.32 21.8319 67.272 21.7199C66.936 21.1279 66.576 20.5279 66.192 19.9199C61.76 20.5119 56.344 20.9599 49.944 21.2639H49.896C49.752 21.2639 49.664 21.1839 49.632 21.0239L49.416 19.8959L49.392 19.7999C49.392 19.6719 49.48 19.5919 49.656 19.5599L51.528 19.4879C52.232 18.7039 52.92 17.8239 53.592 16.8479C54.28 15.8559 54.888 14.8719 55.416 13.8959H49.128C48.936 13.8959 48.84 13.7999 48.84 13.6079V12.5039C48.84 12.3119 48.936 12.2159 49.128 12.2159H68.736C68.928 12.2159 69.024 12.3119 69.024 12.5039V13.6079C69.024 13.7999 68.928 13.8959 68.736 13.8959H57.48Z" fill="white"/>
<path d="M25.488 4.05602C25.488 3.86402 25.584 3.76802 25.776 3.76802H27.096C27.288 3.76802 27.384 3.86402 27.384 4.05602V19.08H33.96V0.360021C33.96 0.168021 34.056 0.0720215 34.248 0.0720215H35.568C35.76 0.0720215 35.856 0.168021 35.856 0.360021V19.08H42.48V4.05602C42.48 3.86402 42.576 3.76802 42.768 3.76802H44.088C44.28 3.76802 44.376 3.86402 44.376 4.05602V20.616C44.376 20.808 44.28 20.904 44.088 20.904H25.776C25.584 20.904 25.488 20.808 25.488 20.616V4.05602Z" fill="white"/>
<path d="M11.784 4.848H19.704C19.896 4.848 19.992 4.944 19.992 5.136V5.88C19.992 6.072 19.896 6.168 19.704 6.168H11.784V7.848H21.576C21.768 7.848 21.864 7.944 21.864 8.136V8.928C21.864 9.12 21.768 9.216 21.576 9.216H0.288C0.096 9.216 0 9.12 0 8.928V8.136C0 7.944 0.096 7.848 0.288 7.848H9.96V6.168H2.184C1.992 6.168 1.896 6.072 1.896 5.88V5.136C1.896 4.944 1.992 4.848 2.184 4.848H9.96V3.24H1.248C1.056 3.24 0.96 3.144 0.96 2.952V2.16C0.96 1.968 1.056 1.872 1.248 1.872H9.96V0.287999C9.96 0.0959997 10.056 0 10.248 0H11.496C11.688 0 11.784 0.0959997 11.784 0.287999V1.872H20.616C20.808 1.872 20.904 1.968 20.904 2.16V2.952C20.904 3.144 20.808 3.24 20.616 3.24H11.784V4.848ZM3.168 22.008C2.976 22.008 2.88 21.912 2.88 21.72V10.992C2.88 10.8 2.976 10.704 3.168 10.704H18.744C18.936 10.704 19.032 10.8 19.032 10.992V18.648C19.032 19.432 18.904 20.056 18.648 20.52C18.392 21 17.928 21.36 17.256 21.6C16.584 21.84 15.624 21.96 14.376 21.96L13.656 21.936C13.496 21.92 13.384 21.84 13.32 21.696L12.96 20.736C12.944 20.704 12.936 20.656 12.936 20.592C12.936 20.464 13.032 20.4 13.224 20.4C13.496 20.416 13.872 20.424 14.352 20.424C15.152 20.424 15.76 20.352 16.176 20.208C16.608 20.08 16.904 19.88 17.064 19.608C17.224 19.32 17.304 18.944 17.304 18.48V18.12H4.608V21.72C4.608 21.912 4.512 22.008 4.32 22.008H3.168ZM17.304 12.024H4.608V13.8H17.304V12.024ZM17.304 15.072H4.608V16.848H17.304V15.072Z" fill="white"/>
</svg>
